{
  "source": "C:\\Users\\Peter\\Desktop\\stuff\\MIUN\\quantitative_research\\video_compression\\videos\\BVI-HD\\BVI-HD_CDVL_videos\\ORIG\\BridgeRiver_1920x1080_30fps.mp4",
  "output": "C:\\Users\\Peter\\Desktop\\stuff\\MIUN\\quantitative_research\\video_compression\\compressed_videos\\BVI-HD\\av1\\8\\BridgeRiver_1920x1080_30fps_av1.mkv",
  "codec": "av1",
  "ok": "Input #0, mov,mp4,m4a,3gp,3g2,mj2, from 'C:\\Users\\Peter\\Desktop\\stuff\\MIUN\\quantitative_research\\video_compression\\videos\\BVI-HD\\BVI-HD_CDVL_videos\\ORIG\\BridgeRiver_1920x1080_30fps.mp4':\n  Metadata:\n    major_brand     : isom\n    minor_version   : 512\n    compatible_brands: isomiso2avc1mp41\n    encoder         : Lavf54.28.101\n  Duration: 00:00:05.00, start: 0.000000, bitrate: 274913 kb/s\n  Stream #0:0[0x1](und): Video: h264 (High 4:4:4 Predictive) (avc1 / 0x31637661), yuv420p(progressive), 1920x1080, 274910 kb/s, 30 fps, 30 tbr, 30 tbn (default)\n    Metadata:\n      handler_name    : VideoHandler\n      vendor_id       : [0][0][0][0]\n[out#0/matroska @ 000001b419628fc0] Codec AVOption b:a (set bitrate (in bits/s)) has not been used for any stream. The most likely reason is either wrong type (e.g. a video option with no video streams) or that it is a private option of some decoder which was not actually used for any stream.\nStream mapping:\n  Stream #0:0 -> #0:0 (h264 (native) -> av1 (libsvtav1))\nPress [q] to stop, [?] for help\nSvt[info]: -------------------------------------------\nSvt[info]: SVT [version]:\tSVT-AV1 Encoder Lib v3.1.0-19-g6ecfe8ec\nSvt[info]: SVT [build]  :\tGCC 15.2.0\t 64 bit\nSvt[info]: LIB Build date: Aug 17 2025 11:37:13\nSvt[info]: -------------------------------------------\nSvt[info]: Level of Parallelism: 5\nSvt[info]: Number of PPCS 93\nSvt[info]: [asm level on system : up to avx2]\nSvt[info]: [asm level selected : up to avx2]\nSvt[info]: -------------------------------------------\nSvt[info]: SVT [config]: main profile\ttier (auto)\tlevel (auto)\nSvt[info]: SVT [config]: width / height / fps numerator / fps denominator \t\t: 1920 / 1080 / 30 / 1\nSvt[info]: SVT [config]: bit-depth / color format \t\t\t\t\t: 8 / YUV420\nSvt[info]: SVT [config]: preset / tune / pred struct \t\t\t\t\t: 4 / PSNR / random access\nSvt[info]: SVT [config]: gop size / mini-gop size / key-frame type \t\t\t: 161 / 16 / key frame\nSvt[info]: SVT [config]: BRC mode / target bitrate (kbps)\t\t\t\t: VBR / 8000 \nSvt[info]: SVT [config]: AQ mode / Variance Boost \t\t\t\t\t: 2 / 0\nSvt[info]: SVT [config]: sharpness / luminance-based QP bias \t\t\t\t: 0 / 0\nSvt[info]: SVT [config]: QP scale compress strength \t\t\t\t\t: 0\nSvt[info]: -------------------------------------------\nOutput #0, matroska, to 'C:\\Users\\Peter\\Desktop\\stuff\\MIUN\\quantitative_research\\video_compression\\compressed_videos\\BVI-HD\\av1\\8\\BridgeRiver_1920x1080_30fps_av1.mkv':\n  Metadata:\n    major_brand     : isom\n    minor_version   : 512\n    compatible_brands: isomiso2avc1mp41\n    encoder         : Lavf62.3.100\n  Stream #0:0(und): Video: av1 (AV01 / 0x31305641), yuv420p(tv, progressive), 1920x1080, q=2-31, 8000 kb/s, 30 fps, 1k tbn (default)\n    Metadata:\n      encoder         : Lavc62.11.100 libsvtav1\n      handler_name    : VideoHandler\n      vendor_id       : [0][0][0][0]\n    Side data:\n      cpb: bitrate max/min/avg: 0/0/8000000 buffer size: 8000000 vbv_delay: N/A\nframe=    0 fps=0.0 q=0.0 size=       0KiB time=N/A bitrate=N/A speed=N/A elapsed=0:00:01.07    \nframe=    0 fps=0.0 q=0.0 size=       0KiB time=N/A bitrate=N/A speed=N/A elapsed=0:00:01.62    \nframe=    0 fps=0.0 q=0.0 size=       0KiB time=N/A bitrate=N/A speed=N/A elapsed=0:00:02.24    \nframe=    0 fps=0.0 q=0.0 size=       0KiB time=N/A bitrate=N/A speed=N/A elapsed=0:00:02.84    \nframe=    0 fps=0.0 q=0.0 size=       0KiB time=N/A bitrate=N/A speed=N/A elapsed=0:00:03.43    \nframe=    0 fps=0.0 q=0.0 size=       0KiB time=N/A bitrate=N/A speed=N/A elapsed=0:00:03.95    \nframe=    1 fps=0.2 q=11.0 size=       1KiB time=00:00:00.00 bitrate=N/A speed=   0x elapsed=0:00:04.46    \nframe=    1 fps=0.2 q=11.0 size=       1KiB time=00:00:00.00 bitrate=N/A speed=   0x elapsed=0:00:04.98    \nframe=    1 fps=0.2 q=11.0 size=       1KiB time=00:00:00.00 bitrate=N/A speed=   0x elapsed=0:00:05.52    \nframe=    3 fps=0.5 q=35.0 size=       1KiB time=00:00:00.06 bitrate=  85.6kbits/s speed=0.011x elapsed=0:00:06.07    \nframe=    6 fps=0.9 q=37.0 size=       1KiB time=00:00:00.16 bitrate=  34.2kbits/s speed=0.0253x elapsed=0:00:06.58    \nframe=    8 fps=1.1 q=37.0 size=       1KiB time=00:00:00.23 bitrate=  24.4kbits/s speed=0.0328x elapsed=0:00:07.11    \nframe=   11 fps=1.4 q=33.0 size=       1KiB time=00:00:00.33 bitrate=  17.1kbits/s speed=0.0435x elapsed=0:00:07.65    \nframe=   16 fps=1.9 q=37.0 size=       1KiB time=00:00:00.50 bitrate=  11.4kbits/s speed=0.0609x elapsed=0:00:08.21    \nframe=   19 fps=2.2 q=33.0 size=       1KiB time=00:00:00.60 bitrate=   9.5kbits/s speed=0.0685x elapsed=0:00:08.76    \nframe=   22 fps=2.4 q=37.0 size=       1KiB time=00:00:00.70 bitrate=   8.1kbits/s speed=0.0754x elapsed=0:00:09.28    \nframe=   26 fps=2.6 q=37.0 size=       1KiB time=00:00:00.83 bitrate=   6.8kbits/s speed=0.0847x elapsed=0:00:09.83    \nframe=   29 fps=2.8 q=31.0 size=       1KiB time=00:00:00.93 bitrate=   6.1kbits/s speed=0.0898x elapsed=0:00:10.38    \nframe=   34 fps=3.1 q=37.0 size=       1KiB time=00:00:01.10 bitrate=   5.2kbits/s speed=0.101x elapsed=0:00:10.92    \nframe=   38 fps=3.3 q=37.0 size=       1KiB time=00:00:01.23 bitrate=   4.6kbits/s speed=0.108x elapsed=0:00:11.44    \nframe=   41 fps=3.4 q=30.0 size=       1KiB time=00:00:01.33 bitrate=   4.3kbits/s speed=0.111x elapsed=0:00:12.01    \nframe=   44 fps=3.5 q=37.0 size=       1KiB time=00:00:01.43 bitrate=   4.0kbits/s speed=0.114x elapsed=0:00:12.56    \nframe=   50 fps=3.8 q=37.0 size=       1KiB time=00:00:01.63 bitrate=   3.5kbits/s speed=0.124x elapsed=0:00:13.12    \nframe=   57 fps=4.2 q=31.0 size=       1KiB time=00:00:01.86 bitrate=   3.1kbits/s speed=0.137x elapsed=0:00:13.65    \nframe=   57 fps=4.0 q=31.0 size=       1KiB time=00:00:01.86 bitrate=   3.1kbits/s speed=0.132x elapsed=0:00:14.16    \nframe=   61 fps=4.1 q=31.0 size=       1KiB time=00:00:02.00 bitrate=   2.9kbits/s speed=0.136x elapsed=0:00:14.73    \nframe=   65 fps=4.3 q=24.0 size=       1KiB time=00:00:02.13 bitrate=   2.7kbits/s speed=0.14x elapsed=0:00:15.25    \nframe=   69 fps=4.4 q=35.0 size=       1KiB time=00:00:02.26 bitrate=   2.5kbits/s speed=0.143x elapsed=0:00:15.80    \nframe=   73 fps=4.5 q=31.0 size=       1KiB time=00:00:02.40 bitrate=   2.4kbits/s speed=0.147x elapsed=0:00:16.32    \nframe=   77 fps=4.6 q=33.0 size=       1KiB time=00:00:02.53 bitrate=   2.3kbits/s speed=0.15x elapsed=0:00:16.89    \nframe=   83 fps=4.8 q=40.0 size=       1KiB time=00:00:02.73 bitrate=   2.1kbits/s speed=0.157x elapsed=0:00:17.46    \nframe=   87 fps=4.8 q=40.0 size=       1KiB time=00:00:02.86 bitrate=   2.0kbits/s speed=0.159x elapsed=0:00:17.98    \nframe=   91 fps=4.9 q=39.0 size=       1KiB time=00:00:03.00 bitrate=   1.9kbits/s speed=0.162x elapsed=0:00:18.54    \nframe=   95 fps=5.0 q=40.0 size=       1KiB time=00:00:03.13 bitrate=   1.8kbits/s speed=0.164x elapsed=0:00:19.10    \nframe=  101 fps=5.1 q=40.0 size=       1KiB time=00:00:03.33 bitrate=   1.7kbits/s speed=0.17x elapsed=0:00:19.62    \nframe=  105 fps=5.2 q=36.0 size=       1KiB time=00:00:03.46 bitrate=   1.6kbits/s speed=0.172x elapsed=0:00:20.12    \nframe=  109 fps=5.3 q=37.0 size=       1KiB time=00:00:03.60 bitrate=   1.6kbits/s speed=0.174x elapsed=0:00:20.64    \nframe=  113 fps=5.3 q=30.0 size=       1KiB time=00:00:03.73 bitrate=   1.5kbits/s speed=0.176x elapsed=0:00:21.19    \nframe=  117 fps=5.4 q=41.0 size=       1KiB time=00:00:03.86 bitrate=   1.5kbits/s speed=0.178x elapsed=0:00:21.76    \nframe=  121 fps=5.4 q=37.0 size=    5120KiB time=00:00:04.00 bitrate=10485.8kbits/s speed=0.179x elapsed=0:00:22.30    \nframe=  125 fps=5.5 q=41.0 size=    5120KiB time=00:00:04.13 bitrate=10147.5kbits/s speed=0.181x elapsed=0:00:22.85    \nframe=  133 fps=5.7 q=44.0 size=    5120KiB time=00:00:04.40 bitrate=9532.5kbits/s speed=0.188x elapsed=0:00:23.40    \nframe=  137 fps=5.7 q=41.0 size=    5120KiB time=00:00:04.53 bitrate=9252.1kbits/s speed=0.189x elapsed=0:00:23.96    \nframe=  143 fps=5.8 q=44.0 size=    5120KiB time=00:00:04.73 bitrate=8861.2kbits/s speed=0.193x elapsed=0:00:24.52    \n[out#0/matroska @ 000001b419628fc0] video:5946KiB audio:0KiB subtitle:0KiB other streams:0KiB global headers:0KiB muxing overhead: 0.025080%\nframe=  150 fps=6.1 q=44.0 Lsize=    5947KiB time=00:00:04.96 bitrate=9809.4kbits/s speed=0.202x elapsed=0:00:24.64    \n",
  "seconds": 25.18202233314514,
  "probe_out": {}
}